<svg aria-hidden="true" style="position: absolute; width: 0; height: 0; overflow: hidden;" version="1.1" xmlns="http://www.w3.org/2000/svg" xmlns:xlink="http://www.w3.org/1999/xlink">
  <defs>
    <symbol id="logo" viewBox="0 0 31 32">
      <path fill="#f6f6f6" style="fill: var(--color1, #f6f6f6)" d="M0 0.615l15.714 15.549 15.055 15.22v-30.769h-30.769z"/>
      <path fill="#f6f6f6" style="fill: var(--color1, #f6f6f6)" d="M4.286 4.681l11.483 11.374 10.824 11.044h-22.308v-22.418z"/>
      <path fill="#4f2ee8" style="fill: var(--color2, #4f2ee8)" d="M26.666 27.171l-11.484-11.374-10.824-11.044h22.308v22.418z"/>
      <path fill="#4f2ee8" style="fill: var(--color2, #4f2ee8)" d="M8.901 9.297l13.077 13.077h-13.077v-13.077z"/>
      <path fill="#f6f6f6" style="fill: var(--color1, #f6f6f6)" d="M8.901 9.297l13.077 13.077v-13.077h-13.077z"/>
    </symbol>
    <symbol id="logo-text" viewBox="0 0 94 32">
      <path d="M22.831 8.341c0-4.761-3.6-7.452-9.827-7.452h-13.004v29.601h13.724c6.269 0 10.293-2.939 10.293-8.653 0-4.43-2.711-6.707-5.888-7.245v-0.083c2.499-0.828 4.702-2.525 4.702-6.169zM5.040 13.143v-8.073h8.090c3.007 0 4.659 1.449 4.659 4.057s-1.355 4.016-4.956 4.016h-7.794zM5.040 16.828h8.853c3.177 0 5.083 1.697 5.083 4.72 0 2.774-1.313 4.761-5.633 4.761h-8.302v-9.481z"/>
      <path d="M36.949 31.111c-6.777 0-10.886-4.595-10.886-11.178s4.109-11.178 10.886-11.178 10.886 4.595 10.886 11.178c0 6.583-4.109 11.178-10.886 11.178zM36.949 27.551c4.236 0 6.438-3.271 6.438-7.618 0-4.388-2.203-7.618-6.438-7.618s-6.438 3.229-6.438 7.618c0 4.347 2.203 7.618 6.438 7.618z"/>
      <path d="M60.651 31.111c-6.777 0-10.886-4.595-10.886-11.178s4.109-11.178 10.886-11.178c6.777 0 10.886 4.595 10.886 11.178s-4.109 11.178-10.886 11.178zM60.651 27.551c4.236 0 6.438-3.271 6.438-7.618 0-4.388-2.203-7.618-6.438-7.618s-6.438 3.229-6.438 7.618c0 4.347 2.203 7.618 6.438 7.618z"/>
      <path d="M74.611 0.889v29.601h4.447v-7.659l3.007-2.774 6.82 10.433h5.337l-9.107-13.29 8.217-7.866h-5.464l-8.81 8.487v-16.933h-4.447z"/>
    </symbol>
    <symbol id="shopping-list" viewBox="0 0 32 32">
      <path d="M25.333 9.333h-4v-1.333c0-1.415-0.562-2.771-1.562-3.771s-2.357-1.562-3.771-1.562c-1.414 0-2.771 0.562-3.771 1.562s-1.562 2.357-1.562 3.771v1.333h-4c-0.354 0-0.693 0.14-0.943 0.391s-0.391 0.589-0.391 0.943v14.667c0 1.061 0.421 2.078 1.172 2.828s1.768 1.172 2.828 1.172h13.333c1.061 0 2.078-0.421 2.828-1.172s1.172-1.768 1.172-2.828v-14.667c0-0.354-0.14-0.693-0.391-0.943s-0.589-0.391-0.943-0.391zM13.333 8c0-0.707 0.281-1.386 0.781-1.886s1.178-0.781 1.886-0.781c0.707 0 1.385 0.281 1.886 0.781s0.781 1.178 0.781 1.886v1.333h-5.333v-1.333zM24 25.333c0 0.354-0.14 0.693-0.391 0.943s-0.589 0.391-0.943 0.391h-13.333c-0.354 0-0.693-0.14-0.943-0.391s-0.391-0.589-0.391-0.943v-13.333h2.667v1.333c0 0.354 0.14 0.693 0.391 0.943s0.589 0.391 0.943 0.391c0.354 0 0.693-0.14 0.943-0.391s0.391-0.589 0.391-0.943v-1.333h5.333v1.333c0 0.354 0.14 0.693 0.39 0.943s0.589 0.391 0.943 0.391 0.693-0.14 0.943-0.391c0.25-0.25 0.391-0.589 0.391-0.943v-1.333h2.667v13.333z"/>
    </symbol>
    <symbol id="arrow-to-right" viewBox="0 0 32 32">
      <path fill="none" stroke="#eac645" style="stroke: var(--color3, #eac645)" stroke-linejoin="round" stroke-linecap="round" stroke-miterlimit="4" stroke-width="3.2" d="M5.333 16h21.333M26.667 16l-8-8M26.667 16l-8 8"/>
    </symbol>
    <symbol id="icon-user" viewBox="0 0 32 32">
      <path fill="#4f2ee8" style="fill: var(--color2, #4f2ee8)" d="M5.333 29.333c0-2.829 1.124-5.542 3.124-7.543s4.713-3.124 7.542-3.124c2.829 0 5.542 1.124 7.542 3.124s3.124 4.714 3.124 7.543h-21.333zM16 17.333c-4.42 0-8-3.58-8-8s3.58-8 8-8c4.42 0 8 3.58 8 8s-3.58 8-8 8z"/>
    </symbol>
    <symbol id="user-arrow-down" viewBox="0 0 28 32">
      <path fill="#fff" style="fill: var(--color4, #fff)" d="M5.898 12h16.513l-7.423 8.391c-0.221 0.25-0.521 0.39-0.834 0.39s-0.613-0.14-0.834-0.39l-7.422-8.391z"/>
    </symbol>
    <symbol id="icon-emblem" viewBox="0 0 20 32">
      <path fill="#fff" style="fill: var(--color4, #fff)" d="M9.005 30.888c-1.738-1.262-2.991-3.156-3.414-5.351h-5.591v-23.117c2.991 1.443 5.153 4.599 5.388 7.876l0.846 6.493-0.407-0.045c-0.893 0-1.676 0.812-1.676 1.608 0 0.752 0.595 1.383 1.378 1.548l1.018 0.226c1.676-3.051 2.631-6.042 2.631-8.973 0-2.645-0.36-5.291-0.423-7.996 0-1.202 0.486-2.3 1.253-3.156 0.783 0.857 1.253 1.954 1.253 3.156 0 2.705-0.423 5.351-0.423 7.996 0 2.931 0.955 5.922 2.631 8.973l1.018-0.226c0.783-0.165 1.378-0.812 1.378-1.548 0-0.812-0.783-1.608-1.676-1.608l-0.423 0.060 0.846-6.493c0.423-3.277 2.396-6.448 5.388-7.876v23.117h-5.576c-0.423 2.179-1.613 4.148-3.414 5.351-0.423 0.286-0.783 0.631-1.018 1.097-0.219-0.466-0.579-0.812-0.987-1.112zM2.647 17.556c0.235-0.857 0.893-1.608 1.738-2.074l-0.658-5.351c-0.235-1.668-0.955-3.156-2.036-4.374v11.784h0.955v0.015zM5.466 23.929c0-0.812 0.125-1.548 0.298-2.3l-0.783-0.18c-1.143-0.346-2.036-1.203-2.334-2.3h-0.955v4.78h3.774zM9.178 23.929c0-0.977-0.783-1.834-1.801-1.954-0.172 0.631-0.298 1.263-0.298 1.954h2.099zM9.178 25.552h-1.864c0.298 1.263 0.955 2.42 1.864 3.397v-3.397zM11.809 20.547c-0.72-1.262-1.378-2.585-1.801-3.968-0.423 1.383-1.081 2.706-1.801 3.968 0.72 0.165 1.316 0.631 1.801 1.157 0.486-0.526 1.081-0.992 1.801-1.157zM12.952 23.929c0-0.691-0.125-1.323-0.297-1.954-1.018 0.12-1.801 0.977-1.801 1.954h2.099zM12.717 25.552h-1.864v3.397c0.908-0.992 1.566-2.134 1.864-3.397zM18.34 23.929v-4.78h-0.955c-0.298 1.097-1.206 1.954-2.334 2.3l-0.783 0.18c0.172 0.752 0.298 1.488 0.298 2.3h3.774zM18.34 17.556v-11.799c-1.081 1.202-1.864 2.706-2.036 4.374l-0.658 5.351c0.846 0.466 1.504 1.203 1.739 2.074h0.955z"/>
    </symbol>
    <symbol id="slider-arrow" viewBox="0 0 32 32">
      <path fill="#4f2ee8" style="fill: var(--color2, #4f2ee8)" d="M15.053 17.867c0.124 0.125 0.271 0.224 0.434 0.292s0.337 0.103 0.513 0.103 0.35-0.035 0.513-0.103c0.162-0.068 0.31-0.167 0.434-0.292l6.107-6.12c0.124-0.125 0.271-0.224 0.434-0.292s0.337-0.103 0.513-0.103c0.176 0 0.35 0.035 0.513 0.103s0.31 0.167 0.434 0.292c0.248 0.25 0.388 0.588 0.388 0.94s-0.139 0.69-0.388 0.94l-6.12 6.12c-0.75 0.749-1.767 1.17-2.827 1.17s-2.077-0.421-2.827-1.17l-6.12-6.12c-0.246-0.248-0.385-0.584-0.387-0.933-0.001-0.175 0.033-0.349 0.099-0.512s0.164-0.31 0.288-0.435c0.124-0.125 0.271-0.224 0.434-0.292s0.337-0.103 0.513-0.103c0.176 0 0.35 0.035 0.513 0.103s0.31 0.167 0.434 0.292l6.107 6.12z"/>
    </symbol>
    <symbol id="scroll-up-arrow" viewBox="0 0 32 32">
      <path fill="#fff" style="fill: var(--color4, #fff)" d="M4.5 19.6l11.2-11.233c0.133-0.133 0.278-0.228 0.433-0.283s0.322-0.084 0.5-0.084c0.178 0 0.345 0.028 0.5 0.084s0.3 0.149 0.433 0.283l11.233 11.233c0.311 0.311 0.467 0.7 0.467 1.167s-0.167 0.867-0.5 1.2c-0.333 0.333-0.722 0.5-1.167 0.5s-0.833-0.167-1.167-0.5l-9.8-9.8-9.8 9.8c-0.311 0.311-0.694 0.467-1.149 0.467s-0.851-0.167-1.184-0.5-0.5-0.722-0.5-1.167c0-0.444 0.167-0.833 0.5-1.167z"/>
    </symbol>
    <symbol id="burger-menu" viewBox="0 0 32 32">
      <path d="M19.833 11.667H3.5M24.5 7h-21m21 9.333h-21M19.833 21H3.5"  stroke-width="2" stroke-linecap="round" stroke-linejoin="round"/>
    </symbol>
    <symbol id="close" viewBox="0 0 32 32">
      <path d="M21 7 7 21M7 7l14 14" stroke-width="3" stroke-linecap="round" stroke-linejoin="round"/>
    </symbol>
    <symbol id="trash" viewBox="0 0 32 32">
      <path fill="none" stroke="#fff" style="stroke: var(--color4, #fff)" stroke-linejoin="round" stroke-linecap="round" stroke-miterlimit="4" stroke-width="2.9091" d="M12 4h8M4 8h24M25.333 8l-0.935 14.026c-0.14 2.104-0.21 3.157-0.665 3.954-0.4 0.702-1.004 1.267-1.731 1.619-0.826 0.4-1.881 0.4-3.99 0.4h-4.025c-2.109 0-3.163 0-3.99-0.4-0.727-0.353-1.331-0.917-1.731-1.619-0.455-0.798-0.525-1.85-0.665-3.954l-0.935-14.026M13.333 14v6.667M18.667 14v6.667"/>
    </symbol>
    <symbol id="email" viewBox="0 0 32 32">
      <path stroke-linejoin="round" stroke-linecap="round" stroke-miterlimit="4" stroke-width="2.2857" d="M28.666 24l-8.857-8M12.19 16l-8.857 8M2.667 9.333l10.887 7.621c0.882 0.617 1.322 0.926 1.802 1.045 0.423 0.106 0.866 0.106 1.29 0 0.479-0.12 0.92-0.428 1.802-1.045l10.887-7.621M9.067 26.667h13.867c2.24 0 3.36 0 4.216-0.436 0.753-0.384 1.365-0.995 1.748-1.748 0.436-0.856 0.436-1.976 0.436-4.216v-8.533c0-2.24 0-3.36-0.436-4.216-0.383-0.753-0.995-1.365-1.748-1.748-0.856-0.436-1.976-0.436-4.216-0.436h-13.867c-2.24 0-3.36 0-4.216 0.436-0.753 0.383-1.365 0.995-1.748 1.748-0.436 0.856-0.436 1.976-0.436 4.216v8.533c0 2.24 0 3.36 0.436 4.216 0.384 0.753 0.995 1.365 1.748 1.748 0.856 0.436 1.976 0.436 4.216 0.436z"/>
    </symbol>
    <symbol id="lock" viewBox="0 0 32 32">
      <path stroke-linejoin="round" stroke-linecap="round" stroke-miterlimit="4" stroke-width="2.2857" d="M22.667 14.667v-4c0-3.682-2.985-6.667-6.667-6.667s-6.667 2.985-6.667 6.667v4M10.4 28h11.2c2.24 0 3.36 0 4.216-0.436 0.753-0.383 1.365-0.995 1.748-1.748 0.436-0.856 0.436-1.976 0.436-4.216v-0.533c0-2.24 0-3.36-0.436-4.216-0.383-0.753-0.995-1.365-1.748-1.748-0.856-0.436-1.976-0.436-4.216-0.436h-11.2c-2.24 0-3.36 0-4.216 0.436-0.753 0.384-1.365 0.995-1.748 1.748-0.436 0.856-0.436 1.976-0.436 4.216v0.533c0 2.24 0 3.36 0.436 4.216 0.383 0.753 0.995 1.365 1.748 1.748 0.856 0.436 1.976 0.436 4.216 0.436z"/>
    </symbol>
  </defs>
</svg>
